<svg width="254" height="160" viewBox="0 0 254 160" fill="none" xmlns="http://www.w3.org/2000/svg"><rect width="254" height="160" rx="20" fill="#0A0A0A"/><path d="M82.886 159.632H6.86306C1.32084 159.632 -1.93007 153.399 1.2523 148.877L18.7896 123.889C20.6207 121.281 23.617 119.728 26.8091 119.728H62.9399C66.132 119.728 69.1283 121.281 70.9594 123.889L88.4967 148.877C91.6791 153.409 88.4282 159.632 82.886 159.632Z" fill="#F5C810"/><path d="M143.886 99.8993H47.8631C42.3208 99.8993 39.0699 93.6671 42.2523 89.1443L59.7896 64.1565C61.6207 61.5483 64.617 59.9951 67.8091 59.9951L123.94 59.9951C127.132 59.9951 130.128 61.5483 131.959 64.1565L149.497 89.1443C152.679 93.6768 149.428 99.8993 143.886 99.8993Z" fill="#F5C810"/><path d="M246.886 159.899H150.863C145.321 159.899 142.07 153.667 145.252 149.144L162.79 124.156C164.621 121.548 167.617 119.995 170.809 119.995H226.94C230.132 119.995 233.128 121.548 234.959 124.156L252.497 149.144C255.679 153.677 252.428 159.899 246.886 159.899Z" fill="#F5C810"/><path d="M164.886 39.9042L88.8631 39.9042C83.3208 39.9042 80.0699 33.6719 83.2523 29.1491L100.79 4.16137C102.621 1.55319 105.617 0 108.809 0L144.94 0C148.132 0 151.128 1.55319 152.959 4.16137L170.497 29.1491C173.679 33.6817 170.428 39.9042 164.886 39.9042Z" fill="#F5C810"/></svg>
