<svg width="801" height="160" viewBox="0 0 801 160" fill="none" xmlns="http://www.w3.org/2000/svg">
<path d="M82.886 159.632H6.86306C1.32084 159.632 -1.93007 153.399 1.2523 148.877L18.7896 123.889C20.6207 121.281 23.617 119.728 26.8091 119.728H62.9399C66.132 119.728 69.1283 121.281 70.9594 123.889L88.4967 148.877C91.6791 153.409 88.4282 159.632 82.886 159.632Z" fill="#F5C810"/>
<path d="M143.886 99.8993H47.8631C42.3208 99.8993 39.0699 93.6671 42.2523 89.1443L59.7896 64.1565C61.6207 61.5483 64.617 59.9951 67.8091 59.9951L123.94 59.9951C127.132 59.9951 130.128 61.5483 131.959 64.1565L149.497 89.1443C152.679 93.6768 149.428 99.8993 143.886 99.8993Z" fill="#F5C810"/>
<path d="M246.886 159.899H150.863C145.321 159.899 142.07 153.667 145.252 149.144L162.79 124.156C164.621 121.548 167.617 119.995 170.809 119.995H226.94C230.132 119.995 233.128 121.548 234.959 124.156L252.497 149.144C255.679 153.677 252.428 159.899 246.886 159.899Z" fill="#F5C810"/>
<path d="M164.886 39.9042L88.8631 39.9042C83.3208 39.9042 80.0699 33.6719 83.2523 29.1491L100.79 4.16137C102.621 1.55319 105.617 0 108.809 0L144.94 0C148.132 0 151.128 1.55319 152.959 4.16137L170.497 29.1491C173.679 33.6817 170.428 39.9042 164.886 39.9042Z" fill="#F5C810"/>
<path d="M315.688 140H298.967L342.244 21.4796H360.113L403.554 140H386.669L376.014 110.493H326.179L315.688 140ZM349.129 47.0524L331.097 96.5589H371.26L353.064 47.0524C352.244 44.7574 351.424 41.9707 351.096 40.1674C350.769 41.8067 349.949 44.5935 349.129 47.0524ZM466.574 59.8389H481.819V140H468.049L466.41 127.869C461.82 136.23 451.165 141.967 439.362 141.967C420.674 141.967 410.182 129.345 410.182 109.673V59.8389H425.592V104.591C425.592 121.804 432.969 128.361 444.771 128.361C458.869 128.361 466.574 119.345 466.574 102.132V59.8389ZM546.798 59.1832V73.281H539.913C525.323 73.281 516.307 82.1332 516.307 97.5425V140H500.898V60.0028H515.324L516.307 72.1335C519.586 63.7732 527.618 58.1996 538.601 58.1996C541.388 58.1996 543.683 58.5275 546.798 59.1832ZM589.679 141.967C566.074 141.967 549.845 124.919 549.845 100.001C549.845 74.9203 565.746 57.5439 589.024 57.5439C611.81 57.5439 626.727 73.281 626.727 97.0507V102.788L564.762 102.952C565.91 119.837 574.762 129.181 590.007 129.181C601.974 129.181 609.842 124.263 612.465 115.083H626.891C622.957 132.295 609.515 141.967 589.679 141.967ZM589.024 70.4942C575.581 70.4942 567.057 78.5267 565.09 92.6246H611.318C611.318 79.3464 602.63 70.4942 589.024 70.4942ZM656.397 140H640.988V19.3485H656.397V140ZM683.343 40.8232C677.769 40.8232 673.179 36.2332 673.179 30.6596C673.179 24.9221 677.769 20.496 683.343 20.496C688.916 20.496 693.506 24.9221 693.506 30.6596C693.506 36.2332 688.916 40.8232 683.343 40.8232ZM675.802 140V59.8389H691.211V140H675.802ZM705.058 100.001C705.058 74.9203 720.959 57.5439 744.401 57.5439C764.564 57.5439 778.662 69.0189 781.449 86.8871H766.04C763.417 76.7235 755.22 71.3139 744.893 71.3139C730.303 71.3139 720.304 82.461 720.304 99.8375C720.304 117.05 729.647 128.197 744.237 128.197C755.22 128.197 763.417 122.46 766.204 112.952H781.613C778.498 130.328 763.581 141.967 744.237 141.967C720.631 141.967 705.058 125.246 705.058 100.001Z" fill="#F5C810"/>
</svg>
